<svg width="369" height="120" viewBox="0 0 369 120" fill="none" xmlns="http://www.w3.org/2000/svg">
<path fill-rule="evenodd" clip-rule="evenodd" d="M230.415 92.1464H285.694L258.079 64.5308L230.415 92.1464Z" fill="#E4051E"/>
<path fill-rule="evenodd" clip-rule="evenodd" d="M202.752 0L165.884 36.8688L147.473 18.4579H110.605L147.473 55.3262L129.074 73.7125L73.7367 18.4104L55.3262 36.8209L0 92.1471H36.8688L46.0736 82.9419H101.447L110.605 92.0992H110.673L82.7521 120H119.62L165.884 73.7367L184.294 92.1471H184.342H221.162H221.21L258.079 55.2788L294.946 92.1471L368.636 18.4109V18.4104H331.768L294.899 55.2788L258.079 18.4104L202.752 73.7367L184.294 55.2788L239.62 0H202.752ZM73.7836 55.2792L83.0363 64.5318H64.5309L73.7836 55.2792Z" fill="url(#paint0_linear_2386_8500)"/>
<defs>
<linearGradient id="paint0_linear_2386_8500" x1="224.312" y1="178.148" x2="279.87" y2="-32.4074" gradientUnits="userSpaceOnUse">
<stop stop-color="#3A3A3A"/>
<stop offset="1" stop-color="#383838"/>
</linearGradient>
</defs>

  <metadata>
    © 2025 Claro. Todos os direitos reservados - CNPJ: 40.432.544/0001-47
  </metadata>
</svg>
